<?xml version="1.0" encoding="UTF-8" standalone="no"?>
<!DOCTYPE svg PUBLIC "-//W3C//DTD SVG 1.1//EN"
 "http://www.w3.org/Graphics/SVG/1.1/DTD/svg11.dtd">
<!-- Generated by graphviz version 2.50.0 (0)
 -->
<!-- Title: G Pages: 1 -->
<svg width="380pt" height="261pt"
 viewBox="0.00 0.00 380.09 261.00" xmlns="http://www.w3.org/2000/svg" xmlns:xlink="http://www.w3.org/1999/xlink">
<g id="graph0" class="graph" transform="scale(1 1) rotate(0) translate(4 257)">
<title>G</title>
<polygon fill="white" stroke="transparent" points="-4,4 -4,-257 376.09,-257 376.09,4 -4,4"/>
<g id="clust1" class="cluster">
<title>cluster_1</title>
<polygon fill="lightgrey" stroke="lightgrey" points="8,-8 8,-245 78,-245 78,-8 8,-8"/>
<text text-anchor="middle" x="43" y="-229.8" font-family="Times,serif" font-size="14.00">Layer ?</text>
</g>
<g id="clust2" class="cluster">
<title>cluster_2</title>
<polygon fill="lightgrey" stroke="lightgrey" points="98,-8 98,-245 227.09,-245 227.09,-8 98,-8"/>
<text text-anchor="middle" x="162.54" y="-229.8" font-family="Times,serif" font-size="14.00">Layer: ReLU</text>
</g>
<g id="clust3" class="cluster">
<title>cluster_3</title>
<polygon fill="lightgrey" stroke="lightgrey" points="247.09,-62 247.09,-191 372.09,-191 372.09,-62 247.09,-62"/>
<text text-anchor="middle" x="309.59" y="-175.8" font-family="Times,serif" font-size="14.00">Layer: Softmax</text>
</g>
<!-- ? -->
<g id="node1" class="node">
<title>?</title>
<ellipse fill="none" stroke="black" cx="43" cy="-196" rx="27" ry="18"/>
<text text-anchor="middle" x="43" y="-192.3" font-family="Times,serif" font-size="14.00">?</text>
</g>
<!-- node1 -->
<g id="node5" class="node">
<title>node1</title>
<ellipse fill="none" stroke="black" cx="162.54" cy="-196" rx="38.99" ry="18"/>
<text text-anchor="middle" x="162.54" y="-192.3" font-family="Times,serif" font-size="14.00">node1</text>
</g>
<!-- ?&#45;&gt;node1 -->
<g id="edge1" class="edge">
<title>?&#45;&gt;node1</title>
<path fill="none" stroke="black" d="M70.09,-196C82.84,-196 98.59,-196 113.42,-196"/>
<polygon fill="black" stroke="black" points="113.48,-199.5 123.48,-196 113.48,-192.5 113.48,-199.5"/>
</g>
<!-- node2 -->
<g id="node6" class="node">
<title>node2</title>
<ellipse fill="none" stroke="black" cx="162.54" cy="-142" rx="38.99" ry="18"/>
<text text-anchor="middle" x="162.54" y="-138.3" font-family="Times,serif" font-size="14.00">node2</text>
</g>
<!-- ?&#45;&gt;node2 -->
<g id="edge5" class="edge">
<title>?&#45;&gt;node2</title>
<path fill="none" stroke="black" d="M65.56,-186.1C82.19,-178.46 105.58,-167.71 125.1,-158.74"/>
<polygon fill="black" stroke="black" points="126.7,-161.86 134.33,-154.5 123.78,-155.5 126.7,-161.86"/>
</g>
<!-- ... -->
<g id="node7" class="node">
<title>...</title>
<ellipse fill="none" stroke="black" cx="162.54" cy="-88" rx="27" ry="18"/>
<text text-anchor="middle" x="162.54" y="-84.3" font-family="Times,serif" font-size="14.00">...</text>
</g>
<!-- ?&#45;&gt;... -->
<g id="edge9" class="edge">
<title>?&#45;&gt;...</title>
<path fill="none" stroke="black" d="M59.85,-181.43C80.12,-162.81 115.36,-130.43 138.57,-109.11"/>
<polygon fill="black" stroke="black" points="140.95,-111.68 145.94,-102.33 136.21,-106.52 140.95,-111.68"/>
</g>
<!-- node2304 -->
<g id="node8" class="node">
<title>node2304</title>
<ellipse fill="none" stroke="black" cx="162.54" cy="-34" rx="56.59" ry="18"/>
<text text-anchor="middle" x="162.54" y="-30.3" font-family="Times,serif" font-size="14.00">node2304</text>
</g>
<!-- ?&#45;&gt;node2304 -->
<g id="edge13" class="edge">
<title>?&#45;&gt;node2304</title>
<path fill="none" stroke="black" d="M55.7,-179.87C76.06,-151.81 118.18,-93.76 142.7,-59.97"/>
<polygon fill="black" stroke="black" points="145.79,-61.67 148.83,-51.52 140.12,-57.56 145.79,-61.67"/>
</g>
<!-- ?? -->
<g id="node2" class="node">
<title>??</title>
<ellipse fill="none" stroke="black" cx="43" cy="-142" rx="27" ry="18"/>
<text text-anchor="middle" x="43" y="-138.3" font-family="Times,serif" font-size="14.00">??</text>
</g>
<!-- ??&#45;&gt;node1 -->
<g id="edge2" class="edge">
<title>??&#45;&gt;node1</title>
<path fill="none" stroke="black" d="M65.56,-151.9C82.19,-159.54 105.58,-170.29 125.1,-179.26"/>
<polygon fill="black" stroke="black" points="123.78,-182.5 134.33,-183.5 126.7,-176.14 123.78,-182.5"/>
</g>
<!-- ??&#45;&gt;node2 -->
<g id="edge6" class="edge">
<title>??&#45;&gt;node2</title>
<path fill="none" stroke="black" d="M70.09,-142C82.84,-142 98.59,-142 113.42,-142"/>
<polygon fill="black" stroke="black" points="113.48,-145.5 123.48,-142 113.48,-138.5 113.48,-145.5"/>
</g>
<!-- ??&#45;&gt;... -->
<g id="edge10" class="edge">
<title>??&#45;&gt;...</title>
<path fill="none" stroke="black" d="M65.56,-132.1C83.75,-123.74 110.03,-111.66 130.49,-102.26"/>
<polygon fill="black" stroke="black" points="132.1,-105.38 139.72,-98.02 129.18,-99.02 132.1,-105.38"/>
</g>
<!-- ??&#45;&gt;node2304 -->
<g id="edge14" class="edge">
<title>??&#45;&gt;node2304</title>
<path fill="none" stroke="black" d="M59.85,-127.43C79.22,-109.64 112.26,-79.28 135.41,-58.01"/>
<polygon fill="black" stroke="black" points="137.85,-60.52 142.85,-51.18 133.11,-55.37 137.85,-60.52"/>
</g>
<!-- .. -->
<g id="node3" class="node">
<title>..</title>
<ellipse fill="none" stroke="black" cx="43" cy="-88" rx="27" ry="18"/>
<text text-anchor="middle" x="43" y="-84.3" font-family="Times,serif" font-size="14.00">..</text>
</g>
<!-- ..&#45;&gt;node1 -->
<g id="edge3" class="edge">
<title>..&#45;&gt;node1</title>
<path fill="none" stroke="black" d="M59.85,-102.57C79.56,-120.67 113.42,-151.78 136.61,-173.09"/>
<polygon fill="black" stroke="black" points="134.3,-175.72 144.03,-179.91 139.04,-170.57 134.3,-175.72"/>
</g>
<!-- ..&#45;&gt;node2 -->
<g id="edge7" class="edge">
<title>..&#45;&gt;node2</title>
<path fill="none" stroke="black" d="M65.56,-97.9C82.19,-105.54 105.58,-116.29 125.1,-125.26"/>
<polygon fill="black" stroke="black" points="123.78,-128.5 134.33,-129.5 126.7,-122.14 123.78,-128.5"/>
</g>
<!-- ..&#45;&gt;... -->
<g id="edge11" class="edge">
<title>..&#45;&gt;...</title>
<path fill="none" stroke="black" d="M70.09,-88C86.37,-88 107.56,-88 125.45,-88"/>
<polygon fill="black" stroke="black" points="125.53,-91.5 135.53,-88 125.53,-84.5 125.53,-91.5"/>
</g>
<!-- ..&#45;&gt;node2304 -->
<g id="edge15" class="edge">
<title>..&#45;&gt;node2304</title>
<path fill="none" stroke="black" d="M65.56,-78.1C80.87,-71.06 101.9,-61.4 120.37,-52.91"/>
<polygon fill="black" stroke="black" points="121.85,-56.09 129.48,-48.73 118.93,-49.73 121.85,-56.09"/>
</g>
<!-- ??? -->
<g id="node4" class="node">
<title>???</title>
<ellipse fill="none" stroke="black" cx="43" cy="-34" rx="27" ry="18"/>
<text text-anchor="middle" x="43" y="-30.3" font-family="Times,serif" font-size="14.00">???</text>
</g>
<!-- ???&#45;&gt;node1 -->
<g id="edge4" class="edge">
<title>???&#45;&gt;node1</title>
<path fill="none" stroke="black" d="M55.7,-50.13C76.17,-78.34 118.62,-136.85 143.09,-170.56"/>
<polygon fill="black" stroke="black" points="140.48,-172.93 149.19,-178.97 146.15,-168.82 140.48,-172.93"/>
</g>
<!-- ???&#45;&gt;node2 -->
<g id="edge8" class="edge">
<title>???&#45;&gt;node2</title>
<path fill="none" stroke="black" d="M59.85,-48.57C79.56,-66.67 113.42,-97.78 136.61,-119.09"/>
<polygon fill="black" stroke="black" points="134.3,-121.72 144.03,-125.91 139.04,-116.57 134.3,-121.72"/>
</g>
<!-- ???&#45;&gt;... -->
<g id="edge12" class="edge">
<title>???&#45;&gt;...</title>
<path fill="none" stroke="black" d="M65.56,-43.9C83.75,-52.26 110.03,-64.34 130.49,-73.74"/>
<polygon fill="black" stroke="black" points="129.18,-76.98 139.72,-77.98 132.1,-70.62 129.18,-76.98"/>
</g>
<!-- ???&#45;&gt;node2304 -->
<g id="edge16" class="edge">
<title>???&#45;&gt;node2304</title>
<path fill="none" stroke="black" d="M70.09,-34C77.75,-34 86.51,-34 95.49,-34"/>
<polygon fill="black" stroke="black" points="95.69,-37.5 105.69,-34 95.69,-30.5 95.69,-37.5"/>
</g>
<!-- y1 -->
<g id="node9" class="node">
<title>y1</title>
<ellipse fill="none" stroke="black" cx="309.09" cy="-142" rx="27" ry="18"/>
<text text-anchor="middle" x="309.09" y="-138.3" font-family="Times,serif" font-size="14.00">y1</text>
</g>
<!-- node1&#45;&gt;y1 -->
<g id="edge17" class="edge">
<title>node1&#45;&gt;y1</title>
<path fill="none" stroke="black" d="M193.49,-184.81C217.48,-175.85 251.06,-163.3 275.68,-154.11"/>
<polygon fill="black" stroke="black" points="277.15,-157.3 285.29,-150.52 274.7,-150.74 277.15,-157.3"/>
</g>
<!-- y2 -->
<g id="node10" class="node">
<title>y2</title>
<ellipse fill="none" stroke="black" cx="309.09" cy="-88" rx="27" ry="18"/>
<text text-anchor="middle" x="309.09" y="-84.3" font-family="Times,serif" font-size="14.00">y2</text>
</g>
<!-- node1&#45;&gt;y2 -->
<g id="edge21" class="edge">
<title>node1&#45;&gt;y2</title>
<path fill="none" stroke="black" d="M183.95,-180.76C209.76,-161.47 254.23,-128.24 282.35,-107.23"/>
<polygon fill="black" stroke="black" points="284.6,-109.92 290.51,-101.13 280.41,-104.32 284.6,-109.92"/>
</g>
<!-- node2&#45;&gt;y1 -->
<g id="edge18" class="edge">
<title>node2&#45;&gt;y1</title>
<path fill="none" stroke="black" d="M201.9,-142C223.51,-142 250.35,-142 271.64,-142"/>
<polygon fill="black" stroke="black" points="271.9,-145.5 281.9,-142 271.9,-138.5 271.9,-145.5"/>
</g>
<!-- node2&#45;&gt;y2 -->
<g id="edge22" class="edge">
<title>node2&#45;&gt;y2</title>
<path fill="none" stroke="black" d="M193.49,-130.81C217.48,-121.85 251.06,-109.3 275.68,-100.11"/>
<polygon fill="black" stroke="black" points="277.15,-103.3 285.29,-96.52 274.7,-96.74 277.15,-103.3"/>
</g>
<!-- ...&#45;&gt;y1 -->
<g id="edge19" class="edge">
<title>...&#45;&gt;y1</title>
<path fill="none" stroke="black" d="M186.45,-96.56C210.55,-105.56 248.69,-119.81 275.84,-129.95"/>
<polygon fill="black" stroke="black" points="274.7,-133.26 285.29,-133.48 277.15,-126.71 274.7,-133.26"/>
</g>
<!-- ...&#45;&gt;y2 -->
<g id="edge23" class="edge">
<title>...&#45;&gt;y2</title>
<path fill="none" stroke="black" d="M189.72,-88C212.6,-88 246.06,-88 271.58,-88"/>
<polygon fill="black" stroke="black" points="271.62,-91.5 281.62,-88 271.62,-84.5 271.62,-91.5"/>
</g>
<!-- node2304&#45;&gt;y1 -->
<g id="edge20" class="edge">
<title>node2304&#45;&gt;y1</title>
<path fill="none" stroke="black" d="M185.81,-50.64C211.68,-69.97 254.31,-101.82 281.79,-122.35"/>
<polygon fill="black" stroke="black" points="280.03,-125.4 290.14,-128.59 284.22,-119.8 280.03,-125.4"/>
</g>
<!-- node2304&#45;&gt;y2 -->
<g id="edge24" class="edge">
<title>node2304&#45;&gt;y2</title>
<path fill="none" stroke="black" d="M200.02,-47.63C223.33,-56.34 253.29,-67.53 275.75,-75.92"/>
<polygon fill="black" stroke="black" points="274.59,-79.22 285.19,-79.44 277.04,-72.67 274.59,-79.22"/>
</g>
</g>
</svg>
